<svg width="42" height="42" viewBox="0 0 42 42" fill="none" xmlns="http://www.w3.org/2000/svg">
<path d="M21.6475 3.76253L37.3975 10.0625C38.01 10.3075 38.5 11.0425 38.5 11.69V17.5C38.5 18.4625 37.7125 19.25 36.75 19.25H5.25C4.2875 19.25 3.5 18.4625 3.5 17.5V11.69C3.5 11.0425 3.99001 10.3075 4.60251 10.0625L20.3525 3.76253C20.7025 3.62253 21.2975 3.62253 21.6475 3.76253Z" stroke="white" stroke-width="1.5" stroke-miterlimit="10" stroke-linecap="round" stroke-linejoin="round"/>
<path d="M38.5 38.5H3.5V33.25C3.5 32.2875 4.2875 31.5 5.25 31.5H36.75C37.7125 31.5 38.5 32.2875 38.5 33.25V38.5Z" stroke="white" stroke-width="1.5" stroke-miterlimit="10" stroke-linecap="round" stroke-linejoin="round"/>
<path d="M7 31.5V19.25" stroke="white" stroke-width="1.5" stroke-miterlimit="10" stroke-linecap="round" stroke-linejoin="round"/>
<path d="M14 31.5V19.25" stroke="white" stroke-width="1.5" stroke-miterlimit="10" stroke-linecap="round" stroke-linejoin="round"/>
<path d="M21 31.5V19.25" stroke="white" stroke-width="1.5" stroke-miterlimit="10" stroke-linecap="round" stroke-linejoin="round"/>
<path d="M28 31.5V19.25" stroke="white" stroke-width="1.5" stroke-miterlimit="10" stroke-linecap="round" stroke-linejoin="round"/>
<path d="M35 31.5V19.25" stroke="white" stroke-width="1.5" stroke-miterlimit="10" stroke-linecap="round" stroke-linejoin="round"/>
<path d="M1.75 38.5H40.25" stroke="white" stroke-width="1.5" stroke-miterlimit="10" stroke-linecap="round" stroke-linejoin="round"/>
<path d="M21 14.875C22.4497 14.875 23.625 13.6997 23.625 12.25C23.625 10.8003 22.4497 9.625 21 9.625C19.5503 9.625 18.375 10.8003 18.375 12.25C18.375 13.6997 19.5503 14.875 21 14.875Z" stroke="white" stroke-width="1.5" stroke-miterlimit="10" stroke-linecap="round" stroke-linejoin="round"/>
</svg>
