<svg width="32" height="32" viewBox="0 0 32 32" fill="none" xmlns="http://www.w3.org/2000/svg">
<path d="M15 24.3333H12C10.5333 24.3333 9.33333 25.5333 9.33333 27V27.3333H8C7.45333 27.3333 7 27.7867 7 28.3333C7 28.88 7.45333 29.3333 8 29.3333H24C24.5467 29.3333 25 28.88 25 28.3333C25 27.7867 24.5467 27.3333 24 27.3333H22.6667V27C22.6667 25.5333 21.4667 24.3333 20 24.3333H17V21.28C16.6667 21.32 16.3333 21.3333 16 21.3333C15.6667 21.3333 15.3333 21.32 15 21.28V24.3333Z" fill="#126A3A"/>
<path d="M24.64 15.52C25.52 15.1867 26.2934 14.64 26.9067 14.0267C28.1467 12.6533 28.96 11.0133 28.96 9.09332C28.96 7.17332 27.4534 5.66666 25.5334 5.66666H24.7867C23.92 3.89332 22.1067 2.66666 20 2.66666H12C9.89337 2.66666 8.08004 3.89332 7.21337 5.66666H6.46671C4.54671 5.66666 3.04004 7.17332 3.04004 9.09332C3.04004 11.0133 3.85337 12.6533 5.09337 14.0267C5.70671 14.64 6.48004 15.1867 7.36004 15.52C8.74671 18.9333 12.08 21.3333 16 21.3333C19.92 21.3333 23.2534 18.9333 24.64 15.52Z" fill="#126A3A"/>
</svg>
