<svg width="32" height="32" viewBox="0 0 32 32" fill="none" xmlns="http://www.w3.org/2000/svg">
<path d="M16.2002 22V24.8" stroke="white" stroke-width="1.5" stroke-linecap="round" stroke-linejoin="round"/>
<path d="M9.5332 29.3333H22.8665V28C22.8665 26.5333 21.6665 25.3333 20.1999 25.3333H12.1999C10.7332 25.3333 9.5332 26.5333 9.5332 28V29.3333V29.3333Z" stroke="white" stroke-width="1.5" stroke-miterlimit="10"/>
<path d="M8.2002 29.3333H24.2002" stroke="white" stroke-width="1.5" stroke-linecap="round" stroke-linejoin="round"/>
<path d="M15.9998 21.3333C10.8398 21.3333 6.6665 17.16 6.6665 12V7.99999C6.6665 5.05332 9.05317 2.66666 11.9998 2.66666H19.9998C22.9465 2.66666 25.3332 5.05332 25.3332 7.99999V12C25.3332 17.16 21.1598 21.3333 15.9998 21.3333Z" stroke="white" stroke-width="1.5" stroke-linecap="round" stroke-linejoin="round"/>
<path d="M7.29355 15.5334C6.29355 15.2134 5.41355 14.6267 4.72021 13.9334C3.52021 12.6 2.72021 11 2.72021 9.13335C2.72021 7.26668 4.18688 5.80002 6.05355 5.80002H6.92022C6.65355 6.41335 6.52021 7.09335 6.52021 7.80002V11.8C6.52021 13.1334 6.80021 14.3867 7.29355 15.5334Z" stroke="white" stroke-width="1.5" stroke-linecap="round" stroke-linejoin="round"/>
<path d="M24.7065 15.5334C25.7065 15.2134 26.5865 14.6267 27.2799 13.9334C28.4799 12.6 29.2799 11 29.2799 9.13335C29.2799 7.26668 27.8132 5.80002 25.9465 5.80002H25.0799C25.3465 6.41335 25.4799 7.09335 25.4799 7.80002V11.8C25.4799 13.1334 25.1999 14.3867 24.7065 15.5334Z" stroke="white" stroke-width="1.5" stroke-linecap="round" stroke-linejoin="round"/>
</svg>
