<svg width="24" height="24" viewBox="0 0 24 24" fill="none" xmlns="http://www.w3.org/2000/svg">
<path d="M23.9999 12.2728C23.9999 11.4541 23.9316 10.6384 23.7888 9.83179H12.2422V14.4521H18.854C18.5807 15.9435 17.6987 17.2614 16.4099 18.0984V21.0994H20.3571C22.6677 19.0145 23.9999 15.9252 23.9999 12.2728Z" fill="#4285F4"/>
<path d="M12.2421 23.9999C15.5464 23.9999 18.329 22.9377 20.357 21.1024L16.4098 18.1013C15.3104 18.8318 13.8974 19.2488 12.2421 19.2488C9.04954 19.2488 6.33836 17.1395 5.36942 14.2968H1.3042V17.3891C3.38184 21.4433 7.61476 23.9999 12.2421 23.9999Z" fill="#34A853"/>
<path d="M5.36956 14.2968C4.85714 12.8085 4.85714 11.1923 5.36956 9.70393V6.61157H1.30435C-0.434782 10.0022 -0.434782 13.9985 1.30435 17.3892L5.36956 14.2968Z" fill="#FBBC04"/>
<path d="M12.2421 4.75188C13.9874 4.72449 15.6738 5.36975 16.9377 6.55069L20.4346 3.12657C18.2172 1.08732 15.2825 -0.0327508 12.2421 0.00072951C7.61476 0.00072951 3.38184 2.56045 1.3042 6.61156L5.36942 9.70392C6.33836 6.86114 9.04954 4.75188 12.2421 4.75188Z" fill="#EA4335"/>
</svg>
