<svg width="24" height="24" viewBox="0 0 24 24" fill="none" xmlns="http://www.w3.org/2000/svg">
<path d="M13.0574 3.7665L13.0581 3.76791L14.8169 7.28548C15.0044 7.66653 15.3176 7.99225 15.6411 8.231C15.966 8.47073 16.3693 8.6729 16.7856 8.7423L16.786 8.74236L19.9756 9.27229C19.9758 9.27232 19.9759 9.27234 19.976 9.27236C20.8664 9.42084 21.1586 9.77174 21.2262 9.98201C21.2932 10.1906 21.2616 10.6435 20.6204 11.2804L20.6186 11.2822L18.1386 13.7622C17.8162 14.0846 17.6006 14.5157 17.4816 14.9311C17.3626 15.3469 17.3181 15.825 17.4171 16.2665L17.4171 16.2665L17.4182 16.2715L18.1281 19.3409C18.3935 20.4927 18.1261 20.9072 17.9934 21.004C17.8594 21.1016 17.3801 21.2289 16.361 20.6271C16.3608 20.627 16.3606 20.6269 16.3604 20.6267L13.3713 18.8573C13.3712 18.8572 13.3711 18.8572 13.371 18.8571C12.9571 18.6119 12.4588 18.5125 12.0027 18.5125C11.5458 18.5125 11.0477 18.6122 10.6318 18.8542L10.6318 18.8542L10.6269 18.8571L7.63688 20.6271L7.63617 20.6275C6.62529 21.2274 6.14492 21.0999 6.00851 21.0004C5.87268 20.9013 5.6052 20.4843 5.86962 19.3416L5.86965 19.3415L6.57965 16.2715L6.57966 16.2715L6.58077 16.2665C6.67974 15.825 6.63524 15.3469 6.51622 14.9311C6.3973 14.5157 6.18166 14.0846 5.85926 13.7622L3.37926 11.2822C2.74227 10.6452 2.70871 10.191 2.77589 9.98065C2.84284 9.771 3.13226 9.42071 4.02186 9.27236C4.02198 9.27234 4.02211 9.27232 4.02223 9.27229L7.21186 8.74236L7.21186 8.74236L7.21449 8.74191C7.6266 8.67193 8.02709 8.46893 8.34938 8.22996C8.67075 7.99168 8.98365 7.66627 9.17099 7.28543L10.9291 3.76931C10.9291 3.76912 10.9292 3.76893 10.9293 3.76874C11.355 2.92207 11.7851 2.75 11.9977 2.75C12.209 2.75 12.6366 2.92048 13.0574 3.7665Z" stroke="white" stroke-width="1.5" stroke-linecap="round" stroke-linejoin="round"/>
<path d="M8.01893 21.2725L11.0089 19.5025C11.283 19.3431 11.6414 19.2631 11.9989 19.2625V2C11.3698 1.99937 10.7393 2.47687 10.2589 3.4325L8.49893 6.9525C8.25893 7.4425 7.61893 7.9125 7.08893 8.0025L3.89893 8.5325C1.85893 8.8725 1.38893 10.3525 2.84893 11.8125L5.32893 14.2925C5.74893 14.7125 5.97893 15.5225 5.84893 16.1025L5.13893 19.1725C4.57893 21.5925 5.87893 22.5425 8.01893 21.2725Z" fill="#F4C51C"/>
</svg>
