<svg width="16" height="16" viewBox="0 0 16 16" fill="none" xmlns="http://www.w3.org/2000/svg">
<path d="M3.28666 15.1666C3.00666 15.1666 2.74667 15.1 2.51333 14.9666C2 14.6666 1.70667 14.06 1.70667 13.3066V3.90665C1.70667 2.21331 3.08667 0.833313 4.78 0.833313H11.2133C12.9067 0.833313 14.2867 2.21331 14.2867 3.90665V13.3C14.2867 14.0533 13.9933 14.66 13.48 14.96C12.9667 15.26 12.2933 15.2266 11.6333 14.86L8.38 13.0533C8.18667 12.9466 7.80667 12.9466 7.61333 13.0533L4.36 14.86C4 15.06 3.63333 15.1666 3.28666 15.1666ZM4.78666 1.83331C3.64666 1.83331 2.71333 2.76665 2.71333 3.90665V13.3C2.71333 13.6933 2.82667 13.9866 3.02667 14.1C3.22667 14.2133 3.54 14.18 3.88 13.9866L7.13333 12.18C7.62666 11.9066 8.37333 11.9066 8.86666 12.18L12.12 13.9866C12.46 14.18 12.7733 14.22 12.9733 14.1C13.1733 13.98 13.2867 13.6866 13.2867 13.3V3.90665C13.2867 2.76665 12.3533 1.83331 11.2133 1.83331H4.78666Z" fill="white"/>
</svg>
