<svg width="32" height="32" viewBox="0 0 32 32" fill="none" xmlns="http://www.w3.org/2000/svg">
<path d="M17.1865 7.84H6.81315C4.53315 7.84 2.6665 9.70664 2.6665 11.9866V27.1333C2.6665 29.0667 4.05317 29.8933 5.7465 28.9466L10.9865 26.0266C11.5465 25.72 12.4532 25.72 12.9998 26.0266L18.2398 28.9466C19.9332 29.8933 21.3198 29.0667 21.3198 27.1333V11.9866C21.3332 9.70664 19.4665 7.84 17.1865 7.84Z" stroke="white" stroke-width="1.5" stroke-linecap="round" stroke-linejoin="round"/>
<path d="M21.3332 11.9866V27.1333C21.3332 29.0667 19.9465 29.88 18.2532 28.9466L13.0132 26.0266C12.4532 25.72 11.5465 25.72 10.9865 26.0266L5.7465 28.9466C4.05317 29.88 2.6665 29.0667 2.6665 27.1333V11.9866C2.6665 9.70664 4.53315 7.84 6.81315 7.84H17.1865C19.4665 7.84 21.3332 9.70664 21.3332 11.9866Z" stroke="white" stroke-width="1.5" stroke-linecap="round" stroke-linejoin="round"/>
<path d="M29.3332 6.8133V21.96C29.3332 23.8933 27.9465 24.7066 26.2532 23.7733L21.3332 21.0266V11.9866C21.3332 9.70664 19.4665 7.84 17.1865 7.84H10.6665V6.8133C10.6665 4.5333 12.5332 2.66666 14.8132 2.66666H25.1865C27.4665 2.66666 29.3332 4.5333 29.3332 6.8133Z" stroke="white" stroke-width="1.5" stroke-linecap="round" stroke-linejoin="round"/>
</svg>
