<svg width="32" height="32" viewBox="0 0 32 32" fill="none" xmlns="http://www.w3.org/2000/svg">
<path d="M17.1867 7.84003H6.81341C4.53341 7.84003 2.66675 9.70669 2.66675 11.9867V27.1334C2.66675 29.0667 4.05341 29.8934 5.74675 28.9467L10.9867 26.0267C11.5467 25.72 12.4534 25.72 13.0001 26.0267L18.2401 28.9467C19.9467 29.88 21.3334 29.0667 21.3334 27.1334V11.9867C21.3334 9.70669 19.4667 7.84003 17.1867 7.84003Z" fill="#126A3A"/>
<path d="M29.3333 6.81335V21.96C29.3333 23.8934 27.9466 24.7067 26.2533 23.7734L23.68 22.3334C23.4666 22.2134 23.3333 21.9867 23.3333 21.7467V11.9867C23.3333 8.60002 20.5733 5.84002 17.1866 5.84002H11.76C11.2666 5.84002 10.92 5.32002 11.1466 4.89335C11.84 3.57335 13.2266 2.66669 14.8133 2.66669H25.1866C27.4666 2.66669 29.3333 4.53335 29.3333 6.81335Z" fill="#126A3A"/>
</svg>
