<svg width="42" height="42" viewBox="0 0 42 42" fill="none" xmlns="http://www.w3.org/2000/svg">
<path d="M35.735 21.6474C37.2575 22.2599 38.2025 24.0625 37.8525 25.655L37.135 28.9099C35.8925 34.5099 31.5 38.4999 25.165 38.4999H16.835C10.5 38.4999 6.10748 34.5099 4.86498 28.9099L4.14747 25.655C3.79747 24.0625 4.74246 22.2599 6.26496 21.6474L8.74998 20.6499L18.3925 16.7824C20.0725 16.1174 21.9275 16.1174 23.6075 16.7824L33.25 20.6499L35.735 21.6474Z" stroke="white" stroke-width="1.5" stroke-linecap="round" stroke-linejoin="round"/>
<path d="M21 38.5001V17.5001" stroke="white" stroke-width="1.5" stroke-linecap="round" stroke-linejoin="round"/>
<path d="M33.25 13.9999V20.6499L23.6075 16.7824C21.9275 16.1174 20.0725 16.1174 18.3925 16.7824L8.75003 20.6499V13.9999C8.75003 11.1124 11.1125 8.74994 14 8.74994H28C30.8875 8.74994 33.25 11.1124 33.25 13.9999Z" stroke="white" stroke-width="1.5" stroke-linecap="round" stroke-linejoin="round"/>
<path d="M25.375 8.74994H16.625V5.24994C16.625 4.28744 17.4125 3.49994 18.375 3.49994H23.625C24.5875 3.49994 25.375 4.28744 25.375 5.24994V8.74994Z" stroke="white" stroke-width="1.5" stroke-linecap="round" stroke-linejoin="round"/>
</svg>
