<svg width="32" height="32" viewBox="0 0 32 32" fill="none" xmlns="http://www.w3.org/2000/svg">
<path d="M16.0002 24.6667C20.7866 24.6667 24.6668 20.7865 24.6668 16C24.6668 11.2135 20.7866 7.33334 16.0002 7.33334C11.2137 7.33334 7.3335 11.2135 7.3335 16C7.3335 20.7865 11.2137 24.6667 16.0002 24.6667Z" stroke="white" stroke-width="1.5" stroke-linecap="round" stroke-linejoin="round"/>
<path d="M25.5198 25.52L25.3465 25.3467M25.3465 6.65332L25.5198 6.47999L25.3465 6.65332ZM6.47984 25.52L6.65317 25.3467L6.47984 25.52ZM15.9998 2.77332V2.66666V2.77332ZM15.9998 29.3333V29.2267V29.3333ZM2.77317 16H2.6665H2.77317ZM29.3332 16H29.2265H29.3332ZM6.65317 6.65332L6.47984 6.47999L6.65317 6.65332Z" stroke="white" stroke-width="2" stroke-linecap="round" stroke-linejoin="round"/>
</svg>
